<?xml version="1.0" standalone="no"?><!DOCTYPE svg PUBLIC "-//W3C//DTD SVG 1.1//EN" "http://www.w3.org/Graphics/SVG/1.1/DTD/svg11.dtd"><svg t="1741848156481" class="icon" viewBox="0 0 1024 1024" version="1.1" xmlns="http://www.w3.org/2000/svg" p-id="15704" xmlns:xlink="http://www.w3.org/1999/xlink" width="200" height="200"><path d="M978.176 464.832a34.816 34.816 0 0 0-49.088 0L511.936 881.92 94.848 464.832a34.688 34.688 0 0 0-49.088 49.088l441.6 441.6a34.816 34.816 0 0 0 49.088 0l441.6-441.6a34.816 34.816 0 0 0 0.128-49.088z" p-id="15705"></path><path d="M978.176 68.48a34.816 34.816 0 0 0-49.088 0L511.936 485.568 94.848 68.48a34.688 34.688 0 0 0-49.088 49.088l441.6 441.6a34.816 34.816 0 0 0 49.088 0l441.6-441.6a34.816 34.816 0 0 0 0.128-49.088z" p-id="15706"></path></svg>